<?xml version="1.0" standalone="no"?>
<!DOCTYPE svg PUBLIC "-//W3C//DTD SVG 1.1//EN" "http://www.w3.org/Graphics/SVG/1.1/DTD/svg11.dtd" >
<svg xmlns="http://www.w3.org/2000/svg" xmlns:xlink="http://www.w3.org/1999/xlink" version="1.1">
<metadata></metadata>
<defs>
<font id="deutsch_gothicnormal" horiz-adv-x="522" >
<font-face units-per-em="2048" ascent="1638" descent="-410" />
<missing-glyph horiz-adv-x="1089" />
<glyph horiz-adv-x="0" />
<glyph unicode="&#xd;" horiz-adv-x="1089" />
<glyph unicode=" "  horiz-adv-x="1089" />
<glyph unicode="&#x09;" horiz-adv-x="1089" />
<glyph unicode="&#xa0;" horiz-adv-x="1089" />
<glyph unicode="!" horiz-adv-x="514" d="M39 1144q0 88 46 174q73 138 264 305h50l4 -26q-22 -27 -41 -83q-18 -52 -18 -135l39 -619q0 -99 -37 -185q-25 -59 -119 -181q-32 -43 -61 -74q-49 -52 -74 -52q-38 0 -38 37q22 42 34 85q14 50 14 105q0 40 -39 337q-22 160 -22 275q-2 26 -2 37zM142 120q0 48 111 157 q61 61 96 61q25 0 75 -52q49 -50 49 -79q0 -36 -82 -123q-81 -86 -130 -86q-20 0 -70 47q-49 46 -49 75z" />
<glyph unicode="&#x22;" horiz-adv-x="592" d="M54 1606h190l-46 -593h-76l-11 11h-11zM342 1606h190l-46 -593h-74l-11 11h-11z" />
<glyph unicode="#" horiz-adv-x="1150" d="M65 593l20 124h240l28 196h-242l18 126h241l50 358h131l-50 -358h205l50 358h131l-50 -358h250l-19 -126h-249l-28 -196h250l-17 -124h-259v11l11 -3l-57 -396h-131l55 388h-205l-57 -388h-128l54 388h-242zM455 717h207l29 209l11 -2v-11h-221z" />
<glyph unicode="$" horiz-adv-x="766" d="M30 471q0 36 46 85q20 21 155 132q-9 17 -83 49t-74 132q0 131 122 233q60 51 214 127v209h58v-194q75 0 129 -9q122 -20 122 -76q0 -42 -50 -100q-49 -57 -105 -57q-5 0 -91 37t-133 37q-12 0 -49 -19q-38 -20 -38 -37q0 -56 242 -109q241 -52 241 -209q0 -92 -78 -179 l-174 -174v-173h-66v57q0 18 2 48q0 33 -15 33q-33 -7 -64 -12q-35 -6 -66 -6q-55 0 -140 46q-105 57 -105 129zM275 608q0 -31 41 -60t89 -29q42 0 67 16t25 42q0 53 -85 81q-62 15 -120 30q0 -36 -6 -53q-8 -21 -11 -27z" />
<glyph unicode="%" horiz-adv-x="1237" d="M59 1179q0 139 78 248q41 52 88 98q48 47 106 87q64 -25 109 -56q48 -33 94 -85q83 -98 83 -229q0 -129 -67 -255t-199 -194l-5 9l-4 -11q-64 29 -109 61q-52 39 -94 91q-80 92 -80 236zM181 54l799 1543l94 -48l-804 -1556l-85 48l5 9zM196 1266q0 -104 74 -196 q74 -83 172 -116l-4 -11l-9 7q12 13 22 35q9 19 15 48q18 42 18 83q0 118 -70 206q-59 74 -170 116q-13 -19 -24 -55l-22 -69l-2 -24v-24zM632 375q0 72 17 126q18 58 61 120q45 59 87 100q45 45 105 85q113 -39 205 -144q83 -98 83 -226q0 -141 -71 -263 q-69 -119 -189 -182v-13q-130 57 -214 157q-84 101 -84 240zM769 458q0 -56 18 -102t52 -92q68 -80 176 -118l-4 -11l-9 7q15 21 20 32q5 12 18 55q12 39 12 83q0 116 -67 202q-57 81 -170 118l-22 -55q-8 -20 -11 -31q-6 -22 -9 -34l-4 -31v-23z" />
<glyph unicode="&#x26;" horiz-adv-x="1045" d="M33 373q0 116 74 241q35 57 89 133q44 44 58 57q21 20 21 28q-18 29 -30 82q-12 51 -12 123q0 89 49 193q50 107 149 195q80 71 138 118q76 63 93 63q16 0 91 -143t75 -167t-132 -136t-132 -123q47 -72 83 -120q103 -132 198 -194q36 36 37 44q-2 18 -2 22q0 47 -11 52 t-11 22q0 38 116 115h30q7 -33 7 -50q-2 -18 -2 -22q0 -84 -35 -152q-6 -8 -76 -100q44 -46 78 -123q33 -74 33 -169q0 -168 -103 -323q-90 -135 -180 -159q1 14 3 38q1 15 1 58q0 139 -22 233q-30 137 -107 166l-374 -362q-74 35 -134 140t-60 220zM257 625q0 -69 87 -178 q33 -40 87 -94q37 30 61 50q42 35 42 55q0 18 -109 128q-63 64 -107 137h-22q-6 -19 -24 -63q-3 -10 -15 -35zM453 1283q0 -38 17 -84q17 -47 53 -84q8 6 67 52q35 27 35 53q0 24 -54 126q-30 57 -46 57q-24 0 -48 -42t-24 -78z" />
<glyph unicode="'" horiz-adv-x="296" d="M54 1606h190l-46 -593h-76l-11 11h-11z" />
<glyph unicode="(" horiz-adv-x="662" d="M57 684q0 295 154 558q73 126 171 237q100 114 213 199l24 -29l-66 -67l-56 -66q-61 -75 -109 -153q-42 -67 -83 -163q-68 -162 -68 -385v-33l3 -35q0 -108 37 -244q29 -120 93 -226q36 -59 92 -118l113 -107l-124 -159q-189 135 -294 347q-100 212 -100 444z" />
<glyph unicode=")" horiz-adv-x="627" d="M26 -81l48 53l46 52q138 158 212 330q73 168 73 402l-2 57l-2 54q-9 90 -15 127q-4 29 -27 95q-31 109 -84 205q-23 42 -50 72q-25 28 -38 41l-102 98l-7 7l-8 9l122 157q188 -130 294 -345q100 -210 100 -444q0 -298 -150 -559q-149 -259 -386 -437z" />
<glyph unicode="*" horiz-adv-x="775" d="M70 1386l96 80q11 -10 50 -37q6 -4 22 -14.5t26 -17.5q23 -13 25 -14q4 -2 23 -9.5t34 -13.5q0 23 -5 38q-9 27 -16 46l-37 105l95 70l7 -9l7 9l93 -70l-43 -107l-13 -89q8 1 29 12q28 14 34 18l76 55l11 11l17 17l109 -74l-52 -120l-63 7l-52 2l-51 -2l-34 -4l30 -33 l52 -44l16 -11l21 -19q14 -6 33 -29l-39 -113l-129 11q-1 8 -3.5 25t-4.5 25q-4 24 -18 57q-1 13 -11 37q-3 8 -8 20.5t-7 16.5q-1 -1 -16 -34q-4 -8 -10 -22t-9 -20q-16 -43 -26 -105l-122 -11l-41 124q16 9 40 24q13 9 53 41q30 25 61 62l-37 4l-56 2l-40 -2q-26 0 -34 -4 l-16 -2l-24 -3z" />
<glyph unicode="+" horiz-adv-x="801" d="M52 688v262l194 -9q7 30 7 92q0 65 15 91h240q6 -50 6 -87q0 -30 -1 -46t-1 -50h235v-263q-4 0 -14.5 -1.5t-15.5 -1.5q-14 0 -113 3q-18 1 -49 2.5t-43 1.5l4 -192h-272l9 185q-1 0 -13.5 1.5t-20.5 2.5q-14 1 -34 1h-61q-28 0 -41 1q-22 2 -31 7z" />
<glyph unicode="," horiz-adv-x="366" d="M9 -172q0 12 52 74t52 83q0 12 -26 32q-56 43 -56 68q55 104 58 109q66 111 96 111q31 0 105 -54q46 -33 46 -57q0 -13 -38 -83q-43 -78 -89 -142q-61 -86 -67 -93q-66 -85 -94 -85q-13 0 -26 13t-13 24z" />
<glyph unicode="-" d="M33 590v100v160h442v-260h-442z" />
<glyph unicode="." horiz-adv-x="400" d="M31 113q66 117 69 122q77 122 114 122t98 -45q45 -32 45 -64t-65 -135q-71 -113 -109 -113q-28 0 -90 47t-62 66z" />
<glyph unicode="/" horiz-adv-x="1106" d="M41 -46l922 1776l115 -68l-917 -1786l-117 65l6 7z" />
<glyph unicode="0" horiz-adv-x="1446" d="M35 708q0 179 91 360q56 111 153 222q117 131 242 209q158 100 309 100q269 0 434 -261q148 -235 148 -556q0 -129 -52 -248q-86 -193 -292 -338q-115 -81 -170 -111q-130 -72 -301 -72q-251 0 -412 218q-150 203 -150 477zM344 996q0 -91 18 -172q25 -123 98 -279 q82 -182 185 -268q87 -70 170 -70q127 0 196 90q70 91 70 248t-44 310t-128 280q-93 144 -177 201q-57 41 -111 41q-121 0 -199 -117t-78 -264z" />
<glyph unicode="1" horiz-adv-x="740" d="M33 1336q0 24 52 58q46 30 109 85q34 29 94 81q50 35 82 35q55 0 106 -59q51 -58 51 -111v-1201q10 -12 13 -13q14 -13 24 -13q15 5 29 11q30 14 72 46h37l6 -22q0 -39 -135 -126q-151 -98 -259 -98q-60 0 -94 54q-26 43 -26 74v1133q0 36 -10 47q-11 12 -31 12 q-11 0 -52 -9q-39 -9 -60 -4q-8 9 -8 20z" />
<glyph unicode="2" horiz-adv-x="1176" d="M44 11v54q38 31 74 77q33 42 281 363q119 154 178 249q90 144 90 231q0 52 -23 115q-22 61 -62 105q-22 21 -83 56q-77 44 -116 44q-62 0 -171 -86t-125 -86q-43 0 -43 37q0 36 93 137q89 96 177 157q120 79 128 83q100 57 172 57q139 0 257 -112t118 -261 q0 -143 -83 -268q-23 -33 -119 -163q-119 -164 -179 -242q-122 -161 -122 -168q0 -31 38 -37q44 -7 73 -7q9 0 29.5 1.5t26.5 1.5q9 0 17 0.5t12 0.5l4 1q192 0 284 48l139 109q6 0 18 -5q11 -5 15 -6v-39q-39 -99 -129 -238q-120 -185 -194 -185h-664q-7 -1 -30 -7 q-20 -6 -42 -17h-39z" />
<glyph unicode="3" horiz-adv-x="1141" d="M39 220q0 68 132 234q132 167 188 167q48 0 48 -35q0 -36 -76 -131q-35 -44 -35 -67q20 -40 42 -59q67 -59 178 -59q100 0 177 61q96 73 96 198q0 91 -50 164q-39 57 -101 87q-82 40 -168 41q-89 2 -89 40q0 18 109 152q89 109 164 229q-24 24 -40 24h-333q-22 0 -87 -52 q-67 -53 -89 -53q-44 0 -44 33q0 18 51 76q54 62 147 155q105 105 138 131q56 43 89 43h555q8 -8 10 -11q4 -6 4 -26q0 -62 -151 -211q-150 -149 -150 -205q0 -14 120 -57q78 -29 137 -80q46 -44 70 -100q26 -60 26 -133q0 -87 -44 -181q-66 -140 -229 -303 q-142 -142 -217 -192q-129 -87 -266 -87q-115 0 -207 50q-105 59 -105 157z" />
<glyph unicode="4" horiz-adv-x="1333" d="M37 536q0 42 100 187q94 137 283 366q73 89 120 146q35 42 107 117t146 162q67 81 107 81l28 -7v-769q33 -17 55 -17l24 2q87 0 159 57q31 28 106 95q15 -9 17 -10q5 -4 5 -35q0 -39 -26 -77q-30 -35 -41 -52q-106 -159 -170 -222q-17 -11 -107 -70q-18 -24 -18 -54 q0 -9 1.5 -23t1.5 -19q0 -63 8 -104q9 -46 24 -46q21 0 40 15q69 57 82 61q16 -32 16 -35q0 -32 -120 -146q-144 -135 -264 -135q-87 0 -111 231q-24 230 -44 255h-507q-17 11 -19 12q-3 3 -3 34zM388 819l17 -9h146l31 24v81v28q0 31 -7 98q-43 -36 -122 -135 q-11 -14 -65 -87z" />
<glyph unicode="5" horiz-adv-x="1263" d="M35 183q0 64 99 214t154 150q37 0 40 -88q3 -89 25 -126q29 -30 48 -45q66 -48 135 -48q90 0 157 61q85 76 85 220q0 141 -92 244q-92 102 -220 117q-28 5 -39 5q-39 6 -44 11q-10 13 -10 45q11 88 18 170q8 91 8 164q0 37 -13 44q-14 8 -55 8v52q34 43 124 120 q116 98 159 98h469q30 0 74 23t52 23l31 -15v-24q-42 -69 -114 -146q-90 -96 -167 -124q-48 -17 -164 -25q-113 -7 -113 -82q0 -64 70 -79q124 -29 209 -95q86 -67 127 -146t41 -160q0 -117 -57 -233q-23 -49 -92 -143q-163 -211 -292 -289q-127 -77 -335 -77 q-123 0 -207 34q-111 47 -111 142z" />
<glyph unicode="6" horiz-adv-x="1124" d="M39 514q0 136 54 311q55 178 134 297q118 178 150 214q16 18 172 150q113 95 163 124q35 20 64 20q39 0 39 -42q0 -10 -111 -115q-83 -78 -164 -188q-29 -38 -82 -148q-61 -125 -61 -165q0 -7 7 -14q8 -8 16 -8q77 40 120 61q125 61 183 61q110 0 227 -135 q135 -155 135 -353q0 -108 -110 -283t-217 -225q-90 -41 -127 -53q-44 -14 -69 -14q-31 4 -63 4q-227 0 -351 159q-109 139 -109 342zM366 693q0 -133 111 -273q120 -150 255 -150q18 0 29 15q10 14 10 64q0 140 -98 277t-202 137q-38 0 -72 -17q-33 -16 -33 -53z" />
<glyph unicode="7" horiz-adv-x="1098" d="M31 33q0 18 100 143q59 73 91 127q39 63 75 144q34 76 73 167q102 210 166 371q38 94 83 235q0 44 -305 44q-40 0 -90 -14q-43 -12 -89 -50h-59v46q139 198 273 281q102 63 220 63q44 0 109 -8q74 -9 113 -9q17 1 33.5 1.5t32.5 1.5t23 1q99 10 146 48h37l7 -28 q-40 -70 -77 -144q-85 -172 -128 -268q-67 -148 -107 -244q-19 -46 -37.5 -91t-25.5 -62l-7 -17q-37 -78 -108 -202q-83 -142 -136 -212q-84 -107 -172 -191q-98 -92 -218 -164q-6 3 -16 11q-7 6 -7 20z" />
<glyph unicode="8" horiz-adv-x="1063" d="M39 364q0 75 73 172q117 155 149 196q-54 47 -100 112q-43 61 -43 139q0 95 72 202q59 80 115 159q115 162 187 209q73 48 162 48q130 0 225 -74t95 -200q0 -139 -113 -259q-114 -122 -114 -168q104 -67 196 -144q92 -78 92 -159q0 -48 -46 -133q-63 -116 -183 -237 q-144 -146 -148 -149q-86 -65 -214 -65q-172 0 -298 133q-107 115 -107 218zM327 534q0 -89 109 -170q101 -74 189 -74q44 0 85 37q42 37 42 78q0 69 -166 170q-148 90 -189 90q-16 0 -43 -48t-27 -83zM370 1196q0 -72 111 -155q95 -71 125 -71q20 0 43 47q24 48 24 81 q0 54 -59 113q-68 68 -152 68q-40 0 -65 -24q-27 -25 -27 -59z" />
<glyph unicode="9" horiz-adv-x="1098" d="M44 985q0 197 235 414q215 200 359 200q136 0 271 -141q159 -168 159 -403q0 -159 -71 -346q-71 -186 -147 -273q-143 -160 -257 -257q-199 -170 -316 -170q-13 0 -22 8q-11 9 -20 20q107 68 223 197q111 124 222 343v29l-18 8q-82 -37 -160 -67q-72 -28 -129 -28 q-114 0 -214 124q-115 140 -115 342zM362 1200q0 -165 82 -274q100 -133 192 -133q44 0 68 11q32 17 32 61q0 191 -117 322q-105 116 -214 116q-26 0 -35 -32q-8 -28 -8 -71z" />
<glyph unicode=":" horiz-adv-x="418" d="M44 301q30 74 54 126q61 126 94 126q44 -22 69 -37q70 -44 70 -72q0 -34 -54 -132q-62 -112 -101 -112q-33 0 -82 37q-50 38 -50 64zM74 906q35 80 57 116q66 115 106 115q22 0 82 -39t60 -61q0 -47 -94 -170q-55 -70 -82 -70q-25 0 -77 42t-52 67z" />
<glyph unicode=";" horiz-adv-x="374" d="M13 -159q0 11 48 74t48 76q0 12 -37 42t-37 63q0 18 54 115q54 98 85 98q13 0 79 -39q65 -38 65 -59q0 -13 -24 -61q-34 -68 -89 -152q-42 -62 -100 -133q-49 -61 -64 -61q-10 0 -19 11t-9 26zM57 604q39 80 61 119q69 122 102 122q30 0 89 -50q35 -30 35 -48 q0 -33 -61 -137q-61 -105 -98 -105q-26 0 -91 51q-37 30 -37 48z" />
<glyph unicode="&#x3c;" horiz-adv-x="1024" d="M68 597v185l886 436v-216l-653 -314l653 -313v-218z" />
<glyph unicode="=" horiz-adv-x="688" d="M54 486v87v155h587q0 -40 -5 -120q-4 -64 -4 -122h-578zM54 867v99v160h578q0 -60 4 -147q5 -108 5 -112h-587z" />
<glyph unicode="&#x3e;" horiz-adv-x="1024" d="M70 157v218l653 313l-651 316l-2 214l886 -438v-183z" />
<glyph unicode="?" horiz-adv-x="793" d="M39 1229q0 13 73 110t134 149q67 57 103 79q82 52 148 52q110 0 191 -87q75 -83 75 -172q0 -88 -116 -314q-115 -224 -115 -286q0 -57 41 -102q34 -38 65 -44q10 -2 34 4q21 5 32 5q24 0 24 -26q0 -40 -96 -133q-37 -37 -81 -67q-58 -40 -96 -40q-90 0 -148 85 q-46 65 -46 118q0 60 110 233t110 242q0 103 -67 185q-68 83 -144 83q-39 0 -87 -31q-105 -69 -109 -69q-35 0 -35 26zM325 137q0 34 87 127t141 93q9 0 44 -26q81 -61 81 -111q0 -61 -98 -142q-91 -74 -125 -74q-17 0 -69 42q-61 48 -61 91z" />
<glyph unicode="@" horiz-adv-x="1400" d="M39 791q0 269 178 447q176 176 400 220l56 8l61 2q250 0 438 -161t188 -425h-11h11q0 -155 -88 -275q-89 -121 -194 -189q-11 -8 -49 -30q-28 -16 -62 -33q-51 -31 -96 -41q-24 15 -45 36q-17 17 -33 44l-12 36q-6 18 -12 51l-207 -169q-61 43 -97 94t-42 126 q0 95 50 172q5 8 22 31t26 36q27 39 54 68l-146 259l26 -2h9h9h8h24l20 4q17 0 37 6q25 8 44 16q36 9 67 44l18 -5q16 -5 17 -8l94 -42q18 -8 47 -13q24 -4 53 -4q24 0 33 6q21 14 35 33l45 -24q-12 -15 -26 -36q-6 -10 -13 -25l-15 -41l-11 -64v-80v-281v-11l-2 -20v-13v-4 l6 -44q1 -10 22 -15q20 0 50 24q13 7 35 26t44 39q49 46 106 138q48 83 48 172q0 202 -141 350q-141 149 -388 149q-238 0 -412 -179q-174 -178 -174 -399l2 -46q0 -30 4 -43q25 -200 172 -363q145 -162 399 -162q83 0 150 15q64 14 129 46q107 64 170 141l30 37l29 42 l109 6q-4 -12 -14 -32q-3 -6 -10 -18.5t-9 -16.5q-19 -37 -35 -50q-76 -99 -220 -185q-143 -85 -335 -85q-289 0 -482 212q-194 214 -194 498zM521 1037l104 -187l140 -61v178h11l-5 -11zM580 634q0 -48 28 -94q21 -28 28 -37q5 -6 35 -32l94 74v194h11l-5 -11l-159 67 l-24 -74z" />
<glyph unicode="A" horiz-adv-x="1490" d="M35 120q0 30 23 51q22 21 49 21q62 0 67 -70t55 -70q117 0 161 120q28 77 28 229q0 106 -9 205q-11 120 -21 244q0 146 59 272q48 101 150 211q63 68 194 181l-15 24h-410q-39 0 -72 -9q-42 -13 -124 -39v24q26 44 39 63q42 66 50 66t33 -13t50 -13h1102v-1606h-464v762 h-283q-24 -29 -54 -148q-70 -286 -175 -472q-42 -76 -98 -122q-69 -57 -146 -57q-52 0 -113 37q-76 46 -76 109zM706 893h259v615q-63 -18 -126 -133q-27 -47 -55 -120q-18 -46 -39 -131q-37 -154 -39 -161v-70z" />
<glyph unicode="B" horiz-adv-x="1376" d="M9 1619q0 21 18 46q18 26 41 26q45 0 63 -73t104 -73q27 4 255 37q118 17 236 16q198 0 379 -103q213 -121 213 -303q0 -28 -119 -87q-118 -58 -118 -83q0 -12 126 -113q126 -100 126 -125v-455q0 -101 -104 -198q-129 -120 -329 -120q-98 0 -344 46q-109 21 -177 21 q-45 0 -90 -8q-54 -9 -139 -33l-13 22q14 19 18 28q17 35 17 81v1246q0 38 -82 91q-81 53 -81 114zM612 946q0 -44 26 -44q68 0 158 115q91 117 91 229q0 117 -35 181q-46 85 -155 85q-8 0 -17 0.5t-13.5 1t-6.5 0.5q-9 0 -17 -4q-4 -2 -31 -20v-544zM619 192q0 -28 25 -41 q26 -14 64 -14q116 0 153 81q26 58 26 198v76v81q0 171 -26 226q-25 53 -83 53q-51 0 -109 -65q-22 -25 -50 -66v-529z" />
<glyph unicode="C" horiz-adv-x="1333" d="M44 821q0 297 200 528q212 246 505 246q80 0 176 -35q166 -61 197 -72q40 0 98 57q28 28 41 28q12 0 27 -15t15 -24q0 -32 -146 -222q-47 -60 -133.5 -170.5t-117.5 -150.5q-66 -91 -170 -224q-90 -118 -106 -142q-9 -9 -72 -93q-33 -42 -33 -72q0 -127 86 -233 q85 -105 206 -105q116 0 194 102q70 93 70 203h43q29 -20 107 -50q50 -20 50 -41q0 -101 -176 -225q-138 -96 -321 -96q-188 0 -294 53q-61 39 -181 117q-8 0 -93 -109q-46 -58 -57 -69h-76l-9 21q0 17 74 114t74 128q-73 88 -122 218q-56 139 -56 333zM501 767q0 -23 4 -46 q6 -34 7 -50q50 33 89 89l74 109q98 118 131 164q120 161 120 261q0 77 -43 132q-41 53 -116 53q-129 0 -196 -171q-68 -172 -68 -450q0 -36 -1 -51t-1 -40z" />
<glyph unicode="D" horiz-adv-x="1455" d="M11 1651q0 14 19 33q20 20 33 20q34 -46 112 -82t219 -36q36 0 151 11t181 11q336 0 525 -227q176 -210 176 -538q0 -329 -166 -566q-183 -260 -481 -260q-87 0 -222 31q-130 30 -201 30q-67 0 -111 -14q-41 -13 -91 -57h-37l-7 37q0 18 26 56t26 61v1331q0 35 -76 72 t-76 87zM623 148l48 -6q161 0 224 237q40 152 40 364v57q0 308 -48 477t-142 231h-122v-1360z" />
<glyph unicode="E" horiz-adv-x="1298" d="M41 819q0 279 179 506q213 270 569 270q103 0 172 -13q67 -19 128 -33q10 0 77 46q34 24 54 24q50 0 50 -52q0 -41 -22 -66q-13 -15 -52 -50v-1235q0 -34 42 -77q41 -42 41 -78q0 -25 -18 -39q-17 -13 -41 -13q-26 0 -66 27t-56 27q-19 0 -52 -13q-82 -30 -277 -30 q-309 0 -518 237q-210 239 -210 562zM519 673q0 -216 87 -375q97 -180 265 -180q41 0 106 17q71 19 112 41v1227q0 46 -115 83q-31 9 -118 28q-153 0 -255 -202q-82 -163 -82 -299q0 -35 32 -50q10 -3 15 -4h244q41 0 75 37h45v-253q-10 0 -113 22q-61 13 -131 13 q-122 0 -146 -11q-21 -10 -21 -94z" />
<glyph unicode="F" horiz-adv-x="1315" d="M33 224l213 88h24q0 -19 -4 -46q-5 -33 -5 -37q0 -60 41 -106q40 -45 112 -45q80 0 138 63t58 140q0 54 -76 216q-90 191 -190 311h-311v22q87 93 150 126q47 24 92 24l32 -2q17 0 25 12q7 12 12 56q18 158 260 296q-18 32 -120 70q-116 43 -209 43q-55 0 -107 -12 q-56 -13 -83 -33h-31q49 79 168 133q116 52 283 52q158 0 262 -26q235 -61 287 -61q86 0 129 4q67 10 102 15q-90 -116 -224 -165q-105 -40 -220 -40q-50 0 -88 5q-35 5 -54 9q-33 -10 -44 -43q-10 -30 -10 -84q0 -78 50 -161t94 -83h392q-57 -153 -181 -156t-124 -31 q20 -42 41 -117q20 -72 20 -153q0 -220 -170 -364q-161 -135 -388 -135q-127 0 -222 65q-96 66 -124 150z" />
<glyph unicode="G" horiz-adv-x="1368" d="M35 828q0 135 59 277q50 121 135 222q46 55 99 103q52 47 73 47q9 0 28 -9q45 -21 142 -21q120 0 225 48q140 64 213 100q19 -10 45.5 -24t43 -23t28.5 -16q120 -72 120 -107q0 -17 -110 -83q-108 -65 -125 -65q-25 0 -102 67q-79 68 -107 68q-96 -20 -111 -22 q-112 -24 -122 -33q-23 -18 -48 -178q-33 -201 -33 -434q0 -353 87 -501q74 -126 218 -126q25 0 31 2q3 1 34 26v575q-16 16 -31 26l-30 20q15 34 166 120q31 18 150 80q13 0 99 -62q81 -58 132 -101q-8 -11 -22 -29.5t-19 -25.5q-18 -30 -18 -56v-608q-19 -11 -39 -11 q-16 0 -30 2q-60 11 -74 11q-25 0 -48 -4q-32 -6 -136 -37q-110 -33 -193 -33q-314 0 -530 259q-200 240 -200 556z" />
<glyph unicode="H" horiz-adv-x="1359" d="M28 1595h1103v-76h-610v-436l14 -14q8 -8 16 -8q42 0 151 65q34 20 119 71t131 78q26 0 111 -85q107 -107 175 -236q46 -84 68 -177q21 -90 21 -178q0 -186 -94 -342q-77 -129 -229 -246q-115 -87 -276 -170h-22q30 45 87.5 128t69.5 101q61 110 61 327q0 188 -74 344 q-37 76 -124 154q-92 85 -160 85q-52 0 -52 -50v-913h-436v1502q0 26 -17 32q-18 6 -33 44z" />
<glyph unicode="I" horiz-adv-x="762" d="M31 1525v76h686v-76q-36 -10 -76 -37v-1479h-449v1479q-37 26 -49 31q-13 6 -45 6h-67z" />
<glyph unicode="J" horiz-adv-x="1078" d="M31 1296v31q67 152 162 218q93 65 247 65q111 0 213 -36t195 -36q16 0 70 2q24 1 89 9v-37q-67 -114 -169 -176q-101 -61 -202 -61q-31 0 -231 50q-93 24 -170 24q-47 0 -97 -12q-49 -12 -84 -41h-23zM52 26q0 62 35 111q48 66 140 66q56 0 103 -39q45 -38 45 -94 q0 -94 -79 -127q-78 -33 -78 -45q14 -29 28 -42q45 -41 133 -41q89 0 149 41q62 42 62 116v1228q131 43 212 73q96 35 174 106h37v-1146q0 -214 -162 -344q-163 -131 -415 -131q-156 0 -260 61q-124 72 -124 207z" />
<glyph unicode="K" horiz-adv-x="1298" d="M52 2v1595h449v-904q116 15 209 159q85 130 85 246q0 81 -26 144q-29 53 -59 109q0 24 148 135q31 23 71 53t65 49t41 31q41 -34 76 -119t35 -149q0 -59 -25 -140q-26 -83 -64 -148q-62 -97 -111 -146q-101 -103 -107 -113l440 -630q-14 -23 -126 -106 q-143 -108 -249 -138l-381 700l-22 -16v-612h-449z" />
<glyph unicode="L" horiz-adv-x="1274" d="M52 7v1592h438v-1414q0 -46 23 -61t62 -15q8 0 18.5 0.5t16.5 1t9 0.5q85 0 109 15q48 45 109 88q30 20 130 69q83 39 83 57q-52 133 -76 213q-76 243 -76 401q0 79 24 133q33 74 95 74q77 0 77 -67q0 -28 -9 -42q-9 -13 -37 -13q-24 0 -37 9l-26 26q-11 -20 -21 -55 q-10 -34 -10 -71q0 -132 107 -451q89 -267 183 -469q-1 -1 -17 -14q-8 -7 -20 -7h-1155z" />
<glyph unicode="M" horiz-adv-x="1690" d="M44 11v1590h429v-161q1 -24 28 -24q53 0 137 55q34 23 99 65t91 59q47 0 109 -70q15 -17 124 -144q38 0 163 101q93 75 125 100q40 0 126 -120q66 -94 115 -216q32 -79 49 -161q17 -80 17 -194q0 -130 -21 -220q-21 -89 -72 -184q-52 -96 -79 -136q-11 -17 -57 -74 l-89 -105q-25 -23 -72 -70q-2 -18 -2 -24q7 0 165 52q156 52 192 73h22v-192h-460q-28 24 -28 35q67 133 118 309q52 180 52 357q0 185 -74 369q-73 183 -157 183l-13 -13q-16 -21 -16 -35v-1205h-422v1198q0 42 -24 72q-30 39 -85 39q-36 0 -48 -8q-13 -9 -13 -35v-1266 h-429z" />
<glyph unicode="N" horiz-adv-x="1368" d="M39 1403q16 13 161 96q35 20 155 87q44 0 116 -133q34 -63 61 -63q34 0 153 69q17 10 105 61t136 79q21 -9 54 -24q65 -34 120 -89q118 -118 172 -252q55 -136 55 -293q0 -135 -35 -254q-34 -115 -100 -229q-30 -48 -78 -104q-47 -54 -99 -103q-24 -22 -40 -43 q-15 -19 -36 -40q-65 -49 -76 -59q-26 -23 -26 -31t17 -8q32 4 74 13q172 38 294 91h46v-167h-573v30q148 140 216 336q52 147 52 298q0 229 -144 438q-134 194 -253 194q-45 0 -45 -46v-1250h-443v1320q0 22 -13 39q-5 7 -26 37z" />
<glyph unicode="O" horiz-adv-x="1376" d="M33 741q0 61 12 115q13 57 51 153q30 74 68 133q37 58 93 109q111 101 202 162q60 40 142 92q64 46 72 51q77 50 96 50q42 0 203 -134t224 -230q53 -77 98 -181q63 -149 63 -270q0 -164 -82 -318q-57 -106 -129 -172q-59 -59 -216 -164q-197 -133 -272 -133 q-39 0 -170 68q-179 92 -296 233q-159 192 -159 436zM370 1007q0 -175 109 -390q138 -271 377 -423q137 124 137 388q0 172 -104 381q-130 264 -362 414q-82 -92 -120 -175q-37 -80 -37 -195z" />
<glyph unicode="P" horiz-adv-x="1420" d="M17 1571v35q55 -10 131 -17t185 -7q129 0 190 6q163 18 198 18q259 0 465 -150q204 -148 204 -347q0 -151 -111 -277q-153 -174 -447 -174q-137 0 -215 48q-72 56 -94 74v-765h-479v1523q0 9 -27 33zM532 1303q0 -103 4 -250t4 -188q39 44 79 44q27 0 46 -18t19 -46 q0 -34 -19 -52q-21 -10 -24 -13q7 -7 8 -17l66 -7q113 0 161 109q39 91 39 268q0 166 -35 250q-53 125 -194 125q-62 0 -96 -26q-58 -48 -58 -179z" />
<glyph unicode="Q" horiz-adv-x="1437" d="M35 773q0 177 70 290q25 42 165 183q48 48 220 188q220 178 264 178q40 0 146 -76q129 -90 303 -266q110 -110 159 -215q50 -108 50 -242q0 -112 -56 -251q-55 -136 -132 -218q-32 -34 -100 -89q-108 -88 -218 -153q-12 -7 -27.5 -16t-20.5 -12q-50 -33 -50 -46 q0 -26 155 -89q139 -57 209 -72q12 -2 31 -2h39h36q15 0 38 -7q-13 -13 -51 -31l-78 -36q-63 -56 -83 -73q-29 -25 -47 -25q-51 0 -166 111q-116 111 -220 111q-66 0 -127 -49t-76 -49q-26 0 -26 35q0 23 74 80q48 38 96 72q-119 68 -230 146q-109 76 -195 188 q-74 98 -113 208t-39 227zM368 1061q0 -179 76 -331q62 -126 197 -266q50 -53 265 -248q71 67 109 207q29 107 29 185q0 97 -43 221q-42 120 -119 228q-58 85 -217 202q-54 40 -149 101q-36 0 -92 -130t-56 -169z" />
<glyph unicode="R" horiz-adv-x="1516" d="M13 1601l9 16q150 -24 222 -33t107 -9q63 6 150 12t196 6q209 0 316 -35q163 -54 279 -218q18 -27 70 -102q28 -52 28 -129q0 -220 -203 -340q-235 -95 -270 -113q21 -27 225 -109q85 -34 85 -55q-22 -38 -34 -78q-14 -48 -14 -109q0 -136 100 -190q72 -39 209 -39 q-14 -21 -76 -50q-86 -39 -166 -39q-127 0 -270 91q-167 106 -205 260q-7 28 -8 66q0 12 -1 23t-1.5 17t-0.5 7q0 42 6 103q5 51 5 69q0 33 -109 76q-70 28 -117 94l-29 -24v-758h-462v1508q0 16 -20 46q-21 31 -21 36zM534 900q0 -12 6 -22q0 -2 5 -4q21 23 26 29t19 6h27 q27 0 52 -15q22 -13 22 -42q0 -16 -10 -26q-12 -12 -32 -24v-24q18 -5 50 -11q1 0 3.5 -0.5t7 -1t7.5 -0.5q116 0 168 124q41 95 41 259q0 158 -69 261t-177 103q-35 0 -91 -47q-55 -46 -55 -92v-473z" />
<glyph unicode="S" horiz-adv-x="1324" d="M28 266v32q89 65 166 138q88 83 118 83q94 0 248 -68q114 -49 161 -85q53 -40 94 -91q29 -35 50 -35q29 0 52 38q22 37 22 88q0 126 -205 240l-383 200q-209 135 -209 310q0 87 50 161q68 103 231 172q375 159 409 159q8 0 105 -109q54 -60 104 -96q26 -20 75 -41 q37 -16 70 -31t47 -21.5t15 -6.5q-22 -22 -135 -79q-14 -7 -52.5 -25.5t-62.5 -30.5q-4 1 -48 11q-113 30 -190 69q-93 52 -146 151q-20 35 -43 35q-30 0 -63 -37q-40 -48 -40 -107q0 -48 251 -170q140 -69 231 -122q190 -115 246 -172q94 -97 94 -240q0 -123 -60 -213 q-59 -89 -180 -157q-55 -33 -226 -116q-202 -98 -218 -98q-4 0 -138 109q-77 62 -142 87q-69 27 -146 47q-79 21 -152 21z" />
<glyph unicode="T" horiz-adv-x="1333" d="M24 1331q94 111 278 198q180 85 393 85q43 -2 78 -6q108 -14 251 -46q30 -5 144 -61q135 -67 135 -102q0 -24 -50 -63q-44 -32 -79 -55q-22 -18 -76 -76q-39 -44 -63 -44q-41 35 -116 92q-126 93 -204 93q-77 -41 -109 -80q-111 -126 -111 -344q0 -249 156 -429 q157 -181 388 -181h35q56 0 103 20q48 20 106 60q11 -24 11 -30q-15 -87 -50 -140q-58 -84 -179 -157v-268q10 -7 28.5 -18t24.5 -15q26 -17 26 -45q0 -17 -15 -35q-14 -17 -33 -17q-19 5 -33 13q-32 23 -32 74v277q-19 6 -24 6q-56 -12 -102 -20q-45 -8 -97 -8 q-262 0 -443 190q-182 191 -182 472q0 149 88 337q88 187 217 273q66 29 105 45q38 16 61 36q-36 22 -120 37q-83 15 -118 15q-47 0 -139 -17q-138 -25 -209 -66h-44zM1031 346v689h34v-689h-34z" />
<glyph unicode="U" horiz-adv-x="1350" d="M37 660q0 166 73 361q74 198 202 332q19 19 108 83q81 59 105 109q-11 2 -20 6q-35 -11 -89.5 -27.5t-73.5 -22.5q-162 -52 -213 -80h-29v191h556l4 -22q0 -16 -35 -56q-101 -113 -167 -266q-18 -45 -39 -158q-22 -119 -22 -178q0 -191 104 -387q125 -238 294 -238 q16 0 46 15v1290h449v-1327q0 -15 15 -37q15 -23 15 -34q0 -22 -54 -48q-20 -8 -76 -33q-88 -54 -129 -79q-49 -30 -54 -30q-37 0 -96 98q-59 99 -77 105l-398 -216q-153 50 -270 226q-129 192 -129 423z" />
<glyph unicode="V" horiz-adv-x="1315" d="M35 1580v28h429q29 -39 81 -161q65 -151 133 -327q15 -39 113 -296q59 -153 87 -186q37 41 124 244q105 246 105 375q0 124 -87 172q-59 31 -151 31l-6 19q0 47 46 94q61 65 161 65q87 0 149 -62t62 -151q0 -94 -115 -357q-110 -238 -164 -356l-154 -355 q-20 -43 -50 -108.5t-40 -87.5q-58 -120 -87 -157q-27 27 -61 107q-15 37 -96 246q-85 223 -170 430q-56 138 -176 472q-82 232 -133 321z" />
<glyph unicode="W" horiz-adv-x="1834" d="M35 797q0 275 146 469q213 231 224 242l-22 17q-23 0 -93 -26q-89 -33 -172 -89h-37v189h468q-104 -147 -155 -259q-52 -114 -52 -240q0 -246 116 -440q101 -171 281 -283h21v37q-39 43 -82 187q-33 111 -33 214q0 98 28 194q23 77 72 183q6 12 51 86q41 67 56 84 q16 17 35 29q15 9 39 27q53 50 59 74t-7 24q-53 -14 -61 -17q-79 -28 -211 -96h-37v196h468v-37q-78 -90 -123 -208q-44 -116 -44 -243q0 -95 28 -214q28 -121 72 -204q49 -104 116 -186q71 -88 169 -167q5 2 5 4q10 13 10 24v1103q0 22 -9 53q-3 10 -19 69l408 2v-1055 q-21 -19 -132.5 -120.5t-170.5 -155.5q-119 -119 -247 -207q-12 -8 -50 -33q-29 0 -122 81q-115 98 -202 176q-15 0 -148 -137t-159 -137q-30 0 -142 98q-139 121 -222 272q-66 121 -90 198q-30 97 -30 222z" />
<glyph unicode="X" horiz-adv-x="1490" d="M35 163q57 108 74 140q78 141 91 141t114 -43q103 -44 133 -44q16 0 39 26q48 75 63 98q43 54 61 83q26 40 26 81q0 47 -24 85q-24 37 -56 37h-314q18 44 30 70q39 72 74 72q55 -5 81 -5q33 0 54 8q20 8 20 27q0 45 -98 211q-122 208 -250 242q15 17 32 26q94 47 140 72 q21 13 55 34t47 29q14 9 83 51q63 0 213 -205q83 -117 146 -205q66 87 138 174q145 175 237 175h148q18 0 51 -15q30 -14 30 -25q-17 -34 -39.5 -78t-28.5 -55q-71 -132 -91 -132q-14 0 -72 30q-60 31 -74 31q-83 0 -174 -103q-79 -91 -79 -131q0 -36 38 -101q37 -64 82 -64 h335q-39 -90 -100 -120q-43 -22 -126 -22h-66l-6 -24l342 -699v-37h-462q-174 352 -261 529q-40 -29 -85 -89q-61 -84 -192 -299q-33 -58 -46 -82q-26 -35 -43 -35l-144 59q-146 63 -146 82z" />
<glyph unicode="Y" horiz-adv-x="1507" d="M30 1423q22 25 57 75q12 16 35.5 49t34.5 50h529v-30q-13 -23 -38 -70.5t-38 -71.5q-33 -78 -33 -133q0 -71 34 -154q35 -86 106 -158q81 -83 128 -126q134 -122 166 -122q40 0 107 94q80 114 80 248q0 112 -37 183q-85 113 -109 146l303 209q29 -6 63 -63 q57 -90 57 -235q0 -127 -71 -266q-70 -137 -190 -257l-258 -248q-25 -25 -55 -53q-45 -42 -73 -70q-12 -11 -27.5 -24.5t-25.5 -22.5t-17 -16q-43 -42 -43 -61l30 -39h536v-48l-150 -200h-700v37q89 151 133 205q117 138 138 163q-171 112 -286 270q-124 172 -124 360 q0 150 91 289q100 124 129 166q-33 12 -40 13q-16 2 -32 2q-80 0 -174 -28q-216 -63 -236 -63z" />
<glyph unicode="Z" horiz-adv-x="1237" d="M39 144q0 96 159 331q82 121 168 246l194 299q49 77 76 126q79 135 79 155q-5 14 -11 21q-15 24 -37 24q-45 -15 -132 -30q-75 -13 -141 -13q-58 0 -153 41q-97 42 -97 87q0 12 80 61q147 92 149 94h24q15 -84 102 -137q69 -42 122 -42q55 0 144 40q110 50 205 139 q25 -16 126 -139q111 -133 111 -166q0 -28 -170 -294q-128 -201 -166 -266q-119 -202 -220 -338q-124 -167 -124 -204q0 -17 20 -35q19 -18 35 -18h283q59 0 107 61q41 51 56 140h31q24 -58 74 -127q44 -59 44 -80q0 -25 -51 -79q-29 -32 -52 -32h-893q-61 0 -101 40 q-41 41 -41 95z" />
<glyph unicode="[" horiz-adv-x="496" d="M54 -59v1717h382v-11h11v-163h-199v-1371h199v-172h-393z" />
<glyph unicode="\" horiz-adv-x="0" d="M68 1669l132 76l913 -1786l3 -9l6 -13l-129 -76z" />
<glyph unicode="]" horiz-adv-x="488" d="M33 -48v161h198v1373h-198v172h392v-1717h-381v11h-11z" />
<glyph unicode="^" horiz-adv-x="679" d="M35 1235q0 33 67 122q4 5 59 74q19 27 41 59t27 39q63 83 93 83q40 0 77 -39q40 -49 74 -89q47 -49 110 -136q62 -86 62 -108q-29 -37 -46 -55q-53 -56 -96 -56q-10 0 -178 220q-45 -75 -68 -109q-73 -111 -96 -111q-24 0 -87 54q-39 33 -39 52z" />
<glyph unicode="_" horiz-adv-x="1045" d="M-11 -133l11 11v11h1057v-181h-1068v159z" />
<glyph unicode="`" horiz-adv-x="575" d="M63 1571h222l229 -259l-13 -13l-4 -18l-344 74z" />
<glyph unicode="a" horiz-adv-x="775" d="M39 368q0 85 17 144q16 56 97 161q67 87 183 135q91 39 91 68q0 45 -68 92t-89 47q-10 0 -50 -13t-67 -13q-33 0 -63 15q-29 14 -29 46q0 42 39 42q11 0 55 -11q17 -5 24 -5q32 0 117 40q96 46 168 82q36 0 131 -82q109 -93 109 -166v-741q0 -13 17 -48q5 -11 20 -37 q0 -14 -90 -76q-89 -61 -104 -61q-33 0 -72 63q-16 26 -39 70q-45 -14 -111 -55q-114 -69 -125 -69q-16 0 -58 52q-103 130 -103 320zM270 499q0 -90 43 -191q42 -99 77 -99q10 5 30 9l-6 523q-64 -23 -104 -106t-40 -136z" />
<glyph unicode="b" horiz-adv-x="845" d="M44 214v1156q0 35 113 80q102 40 158 40h12v-344q22 -13 32 -13q18 0 107 37t98 37q48 0 138 -146q108 -176 108 -377q0 -131 -52 -250q-77 -180 -268 -295q-11 -8 -100 -67q-103 -68 -122 -68q-29 0 -127 86q-97 85 -97 124zM342 318q0 -26 46 -72t63 -46q54 0 87 105 t33 200q0 184 -98 366q-78 146 -124 164q0 -109 -4 -439q-3 -247 -3 -278z" />
<glyph unicode="c" horiz-adv-x="697" d="M35 580q0 165 78 318q53 103 124 174q14 16 66 67q73 68 96 68q30 -57 69 -99q40 -43 88 -43q32 0 69 22h40v-30q-72 -91 -125 -123t-139 -32q-45 0 -80 13q-38 14 -84 46q-12 -21 -20 -59q-8 -37 -8 -83q0 -150 92 -311q106 -185 287 -294q-10 -21 -99 -115 q-90 -95 -108 -95q-14 4 -26 11q-72 42 -159 144q-86 100 -124 197q-37 93 -37 224z" />
<glyph unicode="d" horiz-adv-x="871" d="M30 553q0 55 33 157q35 108 74 175q17 30 135 167q126 148 148 148q18 0 36 -15q20 -17 28 -22l14 15q10 10 10 22v227q37 37 113 52q77 15 120 33h43v-1259q0 -27 17 -53q18 -28 44 -54q-20 -29 -119 -94q-62 -39 -83 -39q-41 0 -79 71t-59 71q-13 0 -92 -69t-99 -69 q-38 0 -111 79q-173 188 -173 457zM255 749q0 -116 46 -230q64 -162 191 -251q0 84 4 332q3 186 3 210q0 20 -48 77q-43 51 -118 126q-39 -44 -63 -157q-6 -35 -15 -107z" />
<glyph unicode="e" horiz-adv-x="714" d="M31 584q0 63 30 150q28 82 85 172q33 50 139 162q124 130 157 130q7 0 53 -61q31 -44 76 -104q3 -3 54 -77q55 -83 55 -95q0 -67 -175 -216q-174 -149 -174 -170q0 -61 283 -277q-11 -20 -106 -102q-97 -83 -111 -83q-17 0 -67 37q-53 39 -110 96q-99 99 -148 233 q-41 108 -41 205zM227 769q0 -71 16 -125q17 -56 45 -56q26 0 89 66t63 82q0 15 -41 79q-61 97 -98 144h-22q-22 -55 -37 -110q-15 -54 -15 -80z" />
<glyph unicode="f" horiz-adv-x="601" d="M31 1161q33 18 64 21t31 47q0 61 -37 89q-19 15 -19 37q7 13 15 18q50 48 170 115q96 53 163 76q10 4 29 9q41 -25 58 -37q61 -43 61 -61t-46 -58t-71 -40q-14 0 -72 46q-30 24 -44 24q-7 0 -18 -11q-4 -4 -8.5 -9t-5.5 -6q57 -67 76 -112q0 -1 2.5 -10l7.5 -27t10 -37 q10 -41 28 -54q17 -13 39 -13q27 0 37 -5q9 -5 9 -34q0 -44 -45 -53t-45 -59v-1021h-291v1052q-44 27 -55 37q-28 22 -43 76z" />
<glyph unicode="g" horiz-adv-x="906" d="M35 543q0 159 165 366q57 71 199 186q139 112 157 112q78 -69 128 -115q131 -125 131 -162v-769q0 -22 33 -76q32 -52 32 -120q0 -116 -140 -223q-141 -108 -280 -108q-76 0 -157 33t-81 76q20 31 39 54q50 55 103 55q34 -52 76 -94q41 -41 102 -41q52 0 101 42 q50 42 50 99q0 28 -81 144t-98 116q-22 0 -89 -53q-65 -52 -100 -52q-46 0 -157 159q-133 188 -133 371zM279 734q0 -144 63 -279q86 -182 161 -220v652q-7 10 -16.5 23t-16 21.5t-10.5 14.5q-49 61 -70 61q-43 0 -89 -157q-22 -75 -22 -116z" />
<glyph unicode="h" horiz-adv-x="845" d="M41 11v1473l253 98h52v-525h37q25 17 58.5 39.5t37.5 25.5q99 65 116 65q16 -20 32 -41q83 -115 131 -255q29 -88 33 -104q17 -72 17 -188q0 -189 -85 -390q-102 -248 -285 -364l-9 16q51 76 88 209q39 140 39 324q0 138 -35 290q-48 210 -144 283h-28v-956h-308z" />
<glyph unicode="i" horiz-adv-x="468" d="M37 1336q0 16 59 69t87 53q21 0 35 -18q34 -43 172 -43q-20 -51 -74 -90q-66 -48 -140 -48q-42 0 -90 22q-49 22 -49 55zM52 1020q10 15 108 96q96 80 112 80q32 0 87 -106q55 -107 55 -153v-930h-307v930q0 13 -12 31t-43 52z" />
<glyph unicode="j" horiz-adv-x="446" d="M26 1344q36 46 50 61q58 63 92 63l35 -34q38 -35 174 -35v-22q-38 -32 -98 -81q-52 -37 -113 -37q-37 0 -89 26q-51 25 -51 59zM44 1037q19 27 111 98q93 72 106 72q32 0 85 -110q53 -111 53 -208v-815q0 -8 6 -26q18 -47 18 -113q0 -114 -61 -172q-33 -33 -140 -81h-52 q49 53 59 65q37 46 37 96q0 94 -68 153q-30 18 -63 38.5t-39 24.5v873q0 19 -11 46q-10 25 -41 59z" />
<glyph unicode="k" horiz-adv-x="838" d="M50 11v1466q23 22 81 46q149 62 176 74h46v-588q39 0 159 78q51 32 124 81q26 0 72 -72q55 -87 55 -177q0 -111 -91 -190q-90 -78 -90 -102q0 -11 52 -81t60 -93q11 -32 34 -150q1 -17 11 -44q9 -25 39 -54t30 -39q-56 -63 -74 -81q-81 -81 -120 -81q-98 0 -152 284 q-30 160 -72 209h-28q-9 -9 -9 -22v-464h-303zM362 610q70 9 113 74q35 53 35 103q0 49 -24 91q-35 59 -68 59q-16 -5 -28 -11q-28 -18 -28 -41v-275z" />
<glyph unicode="l" horiz-adv-x="392" d="M48 9v1414q25 17 138 66q118 51 154 60v-1540h-292z" />
<glyph unicode="m" horiz-adv-x="1202" d="M31 1028q0 31 108 120q62 52 101 52q37 0 78 -65t57 -65q29 0 139 61t124 61q19 0 57 -41q37 -40 78 -81q20 0 95 39q46 24 156 83q26 0 80 -63q53 -62 53 -96v-1031h-299v928q0 28 -15 42q-14 13 -43 22q-8 -6 -12 -10q-6 -6 -6 -21v-961h-314v952q-12 11 -27 22 q-12 9 -21 9q-5 0 -37 -22v-961h-307v928q0 22 -30 64q-15 20 -15 34z" />
<glyph unicode="n" horiz-adv-x="880" d="M35 1050q0 13 113 74t129 61q33 0 73 -68q40 -69 55 -69q27 0 153 69q124 68 130 68q28 0 66 -56q48 -67 48 -146v-693q0 -26 15 -62q13 -32 33 -73q0 -27 -96 -101q-97 -74 -116 -74q-17 0 -67 70q-57 76 -57 126v691q0 32 -22 77q-23 47 -52 47q-19 0 -33 -21 q-15 -22 -15 -35v-924h-303v935q0 30 -27 66t-27 38z" />
<glyph unicode="o" horiz-adv-x="819" d="M37 558q0 94 31 182q29 83 80 151q242 318 277 318q18 0 118 -104q107 -110 156 -192q35 -58 62 -145q26 -83 26 -158q0 -105 -40 -203q-25 -63 -63 -111q-55 -77 -109 -143q-117 -144 -155 -144q-30 0 -74 36q-45 37 -82 70q-108 86 -168 198q-59 110 -59 245zM227 802 q0 -195 76 -310q56 -86 250 -239q22 22 27 39q6 20 6 57q0 180 -89 339q-134 238 -225 238q-26 0 -36 -40q-9 -35 -9 -84z" />
<glyph unicode="p" horiz-adv-x="923" d="M24 192q13 32 28 50q24 24 42 39v632q0 19 -21 57q-5 9 -19 35t-23 41q0 15 102 87t113 72q12 0 59 -51q45 -49 76 -113q123 48 220 120q33 24 48 24q52 0 142 -187q98 -207 98 -377q0 -176 -63 -295q-64 -120 -209 -226q-13 -11 -35 -29.5t-29 -24.5q-43 -31 -80 -31 q-25 0 -44 9h-26q-9 -42 -9 -96q0 -3 1 -16t2 -23q2 -29 0 -31q-6 -35 -96 -65q-135 -47 -186 -74q-21 24 -21 41v355q0 22 -35 51zM403 237q43 -23 81 -47q34 -22 41 -22q42 0 72 141q24 107 24 168q0 179 -43 291q-42 109 -136 182h-22q-4 -6 -13 -21q-4 -7 -4 -16v-676z " />
<glyph unicode="q" horiz-adv-x="819" d="M35 519q0 61 16 154q17 97 42 152q26 56 199 210q194 174 274 174q19 0 116 -91q98 -92 98 -114v-1150q0 -30 -39 -50q-121 -51 -188 -81h-52v214q0 82 -5 107q-6 30 -30 30t-91 -33q-65 -32 -100 -32q-57 0 -140 141q-100 169 -100 369zM259 730q0 -122 57 -281 q66 -183 159 -270q0 195 3 447t3 283q0 16 -41 61t-59 45q-38 0 -80 -98q-42 -97 -42 -187z" />
<glyph unicode="r" horiz-adv-x="679" d="M28 1055q9 21 91 84q79 61 112 61q27 0 65 -41q26 -28 81 -83q17 0 79 62t67 62q42 -29 63 -50q63 -66 63 -133q0 -20 -41 -67q-83 -94 -103 -94q-13 0 -39 31q-32 39 -69 63v-948h-301v948q0 19 -23 54q-24 37 -45 51z" />
<glyph unicode="s" horiz-adv-x="732" d="M41 168q15 47 77 100q68 61 135 61t163 -72q55 -41 79 -52l6 24q0 24 -17 52q-18 30 -77 89q-195 195 -222 225q-124 143 -124 246q0 113 146 244q133 120 207 120q54 -45 94 -79q96 -82 96 -91q0 -25 -54 -82q-55 -58 -82 -58q-55 0 -122 53q-91 72 -95 76l-16 -13 q64 -103 216 -257q253 -258 253 -362q0 -58 -33 -127t-89 -110q-145 -110 -178 -131q-32 -20 -58 -20q-26 30 -98 77q-68 44 -207 87z" />
<glyph unicode="t" d="M35 1102v101q138 0 257 109q98 92 120 178h30v-229q0 -35 53 -58v-98h-46v-828q0 -32 26 -79t26 -48q0 -18 -97 -79q-98 -62 -121 -62q-37 0 -79 60q-43 61 -43 103v930h-126z" />
<glyph unicode="u" horiz-adv-x="854" d="M44 1046q6 4 13 13q23 26 45 46q38 38 57 58q55 55 68 55q20 0 76 -65q70 -82 70 -157v-726q0 -28 27 -53q26 -25 47 -25q9 0 17 5q11 7 13 8v982h299v-941q0 -42 28 -74t28 -37q0 -22 -103 -76q-105 -55 -121 -55q-26 0 -61 42q-3 4 -29.5 36t-40.5 49q-20 0 -137 -63 q-119 -64 -133 -64q-28 0 -70 56q-41 54 -41 114v726q0 17 -18 59q-3 8 -34 87z" />
<glyph unicode="v" horiz-adv-x="777" d="M44 885v272q13 8 118 55q104 46 132 60h22v-353q0 -25 23 -154q22 -123 62 -246q34 -99 74 -162q33 -55 65 -69q28 43 46 127t18 175q0 135 -44 241t-129 191l186 185q44 -44 67 -87q70 -128 70 -310q0 -123 -23 -229q-22 -103 -56 -187q-13 -29 -26 -57.5t-20 -44.5 t-10 -22q-29 -60 -87 -148q-16 -26 -46 -78q-29 -35 -50 -35q-37 0 -127 102q-112 128 -180 327q-26 80 -55 217q-30 143 -30 230z" />
<glyph unicode="w" horiz-adv-x="1089" d="M39 749q0 281 70 351q26 22 274 114h24v-29q-30 -41 -52 -122q-30 -110 -30 -233q0 -147 40 -279t99 -209q37 24 37 52q-35 95 -62 217q-27 123 -27 232q0 221 56 262q108 33 214 87q15 -15 15 -59q0 -25 -3 -87t-3 -76q0 -187 54 -364q44 -143 109 -233q25 15 32 51 q7 34 7 105q0 209 -45 321l-105 205q0 19 70 87q68 67 87 67q24 0 85 -135q74 -162 74 -298q0 -79 -30 -196q-32 -125 -66 -186q-39 -73 -51 -98q-10 -20 -51 -85q-23 -43 -48 -87q-47 -80 -68 -80q-27 0 -192 233q-40 -27 -148 -199q-46 -71 -65 -71q-12 0 -61 58 q-119 140 -181 314q-25 73 -42 173q-17 102 -17 197z" />
<glyph unicode="x" horiz-adv-x="810" d="M30 190q0 13 46 71q96 122 109 122q12 0 57 -45q46 -46 85 -61q5 8 15 20q7 9 7 19q0 8 -40 131q-37 114 -67 229q-29 110 -75 194q-47 84 -115 139l199 185q73 -43 130 -144q23 -39 42 -39q26 0 89 98t87 98q39 -32 61 -59q63 -74 63 -133q0 -56 -124 -176 q-32 21 -48 41q-46 57 -63 70q-30 -34 -30 -41q20 -54 37 -107q34 -101 82 -275q4 -15 14 -48.5t14 -50.5q12 -46 31 -92q33 -82 87 -116q19 -11 53 -20q0 -10 -44 -45q-21 -17 -37 -33l-78 -83q-40 -35 -57 -35q-40 0 -94 77q-37 54 -80 122q-48 -23 -120 -142 q-28 -48 -59 -48q-22 0 -100 87q-45 51 -77 90z" />
<glyph unicode="y" horiz-adv-x="810" d="M13 -318q0 132 131 224t131 127q-47 55 -101 146q-54 92 -93 220q-29 88 -39 148q-9 53 -9 115v54q0 17 2 55q0 94 1 143q2 75 16 149q9 56 111 70q105 14 142 41h31q4 -31 4 -50q0 -16 -7 -67q-15 -101 -15 -179q0 -149 28 -288q39 -195 122 -313q52 20 89 171 q38 154 38 282q0 98 -37 231q-53 169 -68 222l18 13h218q16 -22 38 -108q20 -80 20 -195q0 -133 -41 -282q-43 -155 -118 -275q-109 -171 -143 -214q-58 -51 -168 -181q-37 -28 -61 -67t-24 -85q0 -36 10 -60q1 -2 20 -54q0 -14 -72 -52q-44 -21 -128 -70q-28 29 -37 60 q-9 30 -9 69z" />
<glyph unicode="z" horiz-adv-x="906" d="M35 120q0 73 65 202q65 128 255 427q62 83 87 122q59 86 59 127q0 43 -37 43q-48 0 -112 -36q-63 -35 -123 -86q-43 29 -92 96q-32 42 -32 61q0 30 63 83q62 52 87 52q24 0 57 -48q32 -47 71 -47q27 0 181 47q158 48 164 48q13 -22 69 -119q70 -123 70 -133q-3 0 -64 -93 q-111 -168 -145 -221q-94 -145 -161 -257q-11 -16 -63 -111q-59 -110 -59 -133q0 -24 23 -30q19 -5 57 -5q99 0 151 39l100 92q11 0 71 -80q60 -79 60 -97q-24 -27 -44 -35q-41 -19 -89 -19h-586q-30 11 -42 19q-41 29 -41 92z" />
<glyph unicode="{" horiz-adv-x="601" d="M28 704v170q69 18 92 65q24 48 24 115v338q0 100 46 177q42 79 152 98l87 2l90 2h37v-198q-101 0 -149 -33t-48 -146v-274q0 -79 -19 -140q-19 -50 -94 -98q71 -39 94 -102q9 -34 13 -63q6 -39 6 -77v-270q0 -114 45 -149q44 -34 152 -34v-189l-9 2l-9 -2h-11h-11 q-175 0 -273 46q-99 47 -99 256v310q0 32 -5 65q-5 35 -17 57q-23 47 -94 72z" />
<glyph unicode="|" horiz-adv-x="566" d="M185 -59v1706h220v-1706h-220z" />
<glyph unicode="}" horiz-adv-x="601" d="M33 96q99 0 148 35q48 35 48 146v272q0 78 19 136q20 60 96 102q-72 38 -96 100q-9 36 -13 59q-6 34 -6 82v273q0 112 -44 150q-19 13 -60 24q-42 11 -92 11v185l19 2h9h11q174 0 274 -41q98 -44 98 -262v-311q0 -39 4 -67q3 -21 16 -53q24 -49 96 -72v-170 q-71 -20 -93 -66q-23 -48 -23 -117v-335v-5q0 -95 -44 -173q-45 -80 -154 -93l-41 -4q-33 0 -46 -4h-46h-41h-22l-17 2v194z" />
<glyph unicode="~" horiz-adv-x="1098" d="M61 1320q44 98 113 175q69 76 185 76q57 0 105 -22l100 -46l59 -30l59 -24l37 -11l41 -4q60 0 100 40t66 84l4 9l5 8l113 -91q-44 -91 -113 -170q-74 -74 -188 -74q-35 0 -57 2q-16 1 -53 17q-11 4 -20.5 8.5t-17.5 8.5t-11 5q-12 5 -43 24l-94 44q-38 18 -98 24 q-66 0 -109 -46q-44 -47 -72 -96z" />
<glyph horiz-adv-x="845" d="M39 837q0 123 57 215q50 81 165 159q26 19 93 53q69 34 73 40q4 5 4 60v128h59v-170q25 -6 74 -17t72 -17q144 -50 144 -122q0 -22 -15 -46q-54 -68 -96 -129q-19 -32 -44 -72q-48 -74 -65 -74q-24 0 -24 37q0 1 2 35t2 42q0 82 -74 135q-57 39 -107 39q-40 0 -63 -44 q-21 -41 -21 -104q0 -164 95 -289t242 -125q48 0 69 7q16 5 75 34h46l4 -28q0 -66 -135 -124q-166 -71 -181 -77v-213h-59v207q-192 48 -292 161t-100 299z" />
<glyph horiz-adv-x="2501" d="M44 57v1564h2370v-1564h-2370zM76 87h2303v1506h-2303v-1506zM231 214v61q58 35 86 69q32 38 32 87v1033h152v-484l20 -17l547 501h67v-610h153v610h496q267 -78 358 -168q102 -100 102 -307q0 -205 -137 -348q-154 -162 -410 -162h-409v281h-153v-281h-137v281h-497 q0 -52 2 -128q1 -19 3 -56.5t2 -54.5q0 -120 -35 -179q-47 -74 -175 -128h-67zM621 871h359v329q-46 -47 -191 -179t-168 -150zM1458 573h137q108 11 181 28q279 67 279 390q0 221 -112 294q-22 13 -278 88h-207v-800z" />
<glyph unicode="&#xad;" d="M33 590v100v160h442v-260h-442z" />
<glyph unicode="&#x2000;" horiz-adv-x="872" />
<glyph unicode="&#x2001;" horiz-adv-x="1745" />
<glyph unicode="&#x2002;" horiz-adv-x="872" />
<glyph unicode="&#x2003;" horiz-adv-x="1745" />
<glyph unicode="&#x2004;" horiz-adv-x="581" />
<glyph unicode="&#x2005;" horiz-adv-x="436" />
<glyph unicode="&#x2006;" horiz-adv-x="290" />
<glyph unicode="&#x2007;" horiz-adv-x="290" />
<glyph unicode="&#x2008;" horiz-adv-x="218" />
<glyph unicode="&#x2009;" horiz-adv-x="349" />
<glyph unicode="&#x200a;" horiz-adv-x="96" />
<glyph unicode="&#x2010;" d="M33 590v100v160h442v-260h-442z" />
<glyph unicode="&#x2011;" d="M33 590v100v160h442v-260h-442z" />
<glyph unicode="&#x2012;" d="M33 590v100v160h442v-260h-442z" />
<glyph unicode="&#x2013;" horiz-adv-x="1104" d="M33 590v100v160h1024v-260h-1024z" />
<glyph unicode="&#x2014;" horiz-adv-x="2128" d="M33 590v100v160h2048v-260h-2048z" />
<glyph unicode="&#x201a;" horiz-adv-x="339" d="M35 1124q16 55 28 100q28 95 46 142q14 36 60 136q45 97 53 97l44 -24q-53 -128 -68 -169q-15 -42 -15 -55q0 -35 54 -50q55 -15 55 -33q-19 -73 -33 -113q-42 -114 -76 -114q-56 15 -74 22q-74 29 -74 61z" />
<glyph unicode="&#x201e;" horiz-adv-x="601" d="M44 1124q16 55 28 100q28 95 46 142q14 36 60 136q45 97 53 97l44 -24q-54 -128 -68 -169q-15 -42 -15 -55q0 -35 54 -50q55 -15 55 -33q-19 -73 -33 -113q-42 -114 -76 -114q-56 15 -74 22q-74 29 -74 61zM301 1065q0 11 35 122q11 36 41 120q87 240 113 240l35 -9v-59 q-7 -11 -41 -96q-35 -88 -35 -93q0 -10 76 -44q37 -18 37 -32q-23 -92 -30 -118q-38 -120 -68 -120q-61 17 -81 24q-82 33 -82 65z" />
<glyph unicode="&#x2026;" horiz-adv-x="592" d="M39 1364q6 16 16.5 46.5t14.5 42.5q38 99 67 144q40 -13 92 -28q72 -29 72 -61q0 -27 -32 -121q-33 -97 -49 -132l-89 -185q-8 -20 -11 -29q-10 -21 -31 -21q-12 0 -21 8q-11 9 -11 20q26 54 48 105q48 107 48 119q0 19 -57 37t-57 55zM305 1299q0 14 28 80 q62 146 77 146q25 0 102 -46q46 -25 46 -43q0 -48 -72 -231q-77 -199 -133 -255q-4 2 -26 14q-13 7 -13 25l98 222q-38 30 -90 53q-17 8 -17 35z" />
<glyph unicode="&#x202f;" horiz-adv-x="349" />
<glyph unicode="&#x205f;" horiz-adv-x="436" />
<glyph unicode="&#x25fc;" horiz-adv-x="1209" d="M0 0v1209h1209v-1209h-1209z" />
</font>
</defs>
</svg>
